<mxfile host="Electron" modified="2023-09-09T02:37:19.737Z" agent="Mozilla/5.0 (Windows NT 10.0; Win64; x64) AppleWebKit/537.36 (KHTML, like Gecko) draw.io/21.6.5 Chrome/114.0.5735.243 Electron/25.3.1 Safari/537.36" etag="Ya8gx6W1yZ5vi43fp25F" version="21.6.5" type="device">
  <diagram name="PÃ¡gina-1" id="cNwQlIbfHrpRkYgB_CM6">
    <mxGraphModel dx="1434" dy="1636" grid="1" gridSize="10" guides="1" tooltips="1" connect="1" arrows="1" fold="1" page="0" pageScale="1" pageWidth="827" pageHeight="1169" math="0" shadow="0">
      <root>
        <mxCell id="0" />
        <mxCell id="1" parent="0" />
        <mxCell id="lnej7SUk_puMEHByZPIr-31" value="" style="group" vertex="1" connectable="0" parent="1">
          <mxGeometry x="220" y="280" width="240" height="80" as="geometry" />
        </mxCell>
        <mxCell id="lnej7SUk_puMEHByZPIr-9" value="&lt;font style=&quot;font-size: 25px;&quot;&gt;dato&lt;/font&gt;" style="whiteSpace=wrap;html=1;aspect=fixed;container=0;" vertex="1" parent="lnej7SUk_puMEHByZPIr-31">
          <mxGeometry width="80" height="80" as="geometry" />
        </mxCell>
        <mxCell id="lnej7SUk_puMEHByZPIr-10" value="&lt;font style=&quot;font-size: 25px;&quot;&gt;tam&lt;/font&gt;" style="whiteSpace=wrap;html=1;aspect=fixed;container=0;" vertex="1" parent="lnej7SUk_puMEHByZPIr-31">
          <mxGeometry x="80" width="80" height="80" as="geometry" />
        </mxCell>
        <mxCell id="lnej7SUk_puMEHByZPIr-11" value="&lt;font style=&quot;font-size: 25px;&quot;&gt;sig&lt;/font&gt;" style="whiteSpace=wrap;html=1;aspect=fixed;container=0;" vertex="1" parent="lnej7SUk_puMEHByZPIr-31">
          <mxGeometry x="160" width="80" height="80" as="geometry" />
        </mxCell>
        <mxCell id="lnej7SUk_puMEHByZPIr-33" value="" style="group" vertex="1" connectable="0" parent="1">
          <mxGeometry x="220" y="-240" width="250" height="250" as="geometry" />
        </mxCell>
        <mxCell id="lnej7SUk_puMEHByZPIr-32" value="" style="whiteSpace=wrap;html=1;aspect=fixed;" vertex="1" parent="lnej7SUk_puMEHByZPIr-33">
          <mxGeometry width="250" height="250" as="geometry" />
        </mxCell>
        <mxCell id="lnej7SUk_puMEHByZPIr-16" value="&lt;font style=&quot;font-size: 25px;&quot;&gt;ult&lt;/font&gt;" style="whiteSpace=wrap;html=1;aspect=fixed;container=0;" vertex="1" parent="lnej7SUk_puMEHByZPIr-33">
          <mxGeometry x="135" y="80" width="80" height="80" as="geometry" />
        </mxCell>
        <mxCell id="lnej7SUk_puMEHByZPIr-17" value="&lt;font style=&quot;font-size: 25px;&quot;&gt;pri&lt;/font&gt;" style="whiteSpace=wrap;html=1;aspect=fixed;container=0;" vertex="1" parent="lnej7SUk_puMEHByZPIr-33">
          <mxGeometry x="35" y="80" width="80" height="80" as="geometry" />
        </mxCell>
        <mxCell id="lnej7SUk_puMEHByZPIr-36" value="&lt;font style=&quot;font-size: 31px;&quot;&gt;NULL&lt;/font&gt;" style="text;html=1;align=center;verticalAlign=middle;resizable=0;points=[];autosize=1;strokeColor=none;fillColor=none;" vertex="1" parent="1">
          <mxGeometry x="80" y="40" width="100" height="50" as="geometry" />
        </mxCell>
        <mxCell id="lnej7SUk_puMEHByZPIr-37" value="&lt;font style=&quot;font-size: 31px;&quot;&gt;NULL&lt;/font&gt;" style="text;html=1;align=center;verticalAlign=middle;resizable=0;points=[];autosize=1;strokeColor=none;fillColor=none;" vertex="1" parent="1">
          <mxGeometry x="600" y="-60" width="100" height="50" as="geometry" />
        </mxCell>
        <mxCell id="lnej7SUk_puMEHByZPIr-34" style="edgeStyle=orthogonalEdgeStyle;rounded=0;orthogonalLoop=1;jettySize=auto;html=1;entryX=0.588;entryY=-0.062;entryDx=0;entryDy=0;entryPerimeter=0;" edge="1" parent="1" source="lnej7SUk_puMEHByZPIr-17" target="lnej7SUk_puMEHByZPIr-9">
          <mxGeometry relative="1" as="geometry">
            <mxPoint x="295" y="70" as="targetPoint" />
          </mxGeometry>
        </mxCell>
        <mxCell id="lnej7SUk_puMEHByZPIr-41" value="" style="group" vertex="1" connectable="0" parent="1">
          <mxGeometry x="620" y="280" width="240" height="80" as="geometry" />
        </mxCell>
        <mxCell id="lnej7SUk_puMEHByZPIr-42" value="&lt;font style=&quot;font-size: 25px;&quot;&gt;dato&lt;/font&gt;" style="whiteSpace=wrap;html=1;aspect=fixed;container=0;" vertex="1" parent="lnej7SUk_puMEHByZPIr-41">
          <mxGeometry width="80" height="80" as="geometry" />
        </mxCell>
        <mxCell id="lnej7SUk_puMEHByZPIr-43" value="&lt;font style=&quot;font-size: 25px;&quot;&gt;tam&lt;/font&gt;" style="whiteSpace=wrap;html=1;aspect=fixed;container=0;" vertex="1" parent="lnej7SUk_puMEHByZPIr-41">
          <mxGeometry x="80" width="80" height="80" as="geometry" />
        </mxCell>
        <mxCell id="lnej7SUk_puMEHByZPIr-44" value="&lt;font style=&quot;font-size: 25px;&quot;&gt;sig&lt;/font&gt;" style="whiteSpace=wrap;html=1;aspect=fixed;container=0;" vertex="1" parent="lnej7SUk_puMEHByZPIr-41">
          <mxGeometry x="160" width="80" height="80" as="geometry" />
        </mxCell>
        <mxCell id="lnej7SUk_puMEHByZPIr-46" value="&lt;font style=&quot;font-size: 31px;&quot;&gt;pc&lt;/font&gt;" style="text;html=1;align=center;verticalAlign=middle;resizable=0;points=[];autosize=1;strokeColor=none;fillColor=none;" vertex="1" parent="1">
          <mxGeometry x="140" y="-230" width="60" height="50" as="geometry" />
        </mxCell>
        <mxCell id="lnej7SUk_puMEHByZPIr-50" style="edgeStyle=orthogonalEdgeStyle;rounded=0;orthogonalLoop=1;jettySize=auto;html=1;entryX=0;entryY=0.5;entryDx=0;entryDy=0;" edge="1" parent="1" source="lnej7SUk_puMEHByZPIr-11" target="lnej7SUk_puMEHByZPIr-42">
          <mxGeometry relative="1" as="geometry" />
        </mxCell>
        <mxCell id="lnej7SUk_puMEHByZPIr-57" value="" style="group" vertex="1" connectable="0" parent="1">
          <mxGeometry x="150" y="-560" width="330" height="180" as="geometry" />
        </mxCell>
        <mxCell id="lnej7SUk_puMEHByZPIr-56" value="" style="rounded=0;whiteSpace=wrap;html=1;" vertex="1" parent="lnej7SUk_puMEHByZPIr-57">
          <mxGeometry width="330" height="180" as="geometry" />
        </mxCell>
        <mxCell id="lnej7SUk_puMEHByZPIr-51" value="" style="group" vertex="1" connectable="0" parent="lnej7SUk_puMEHByZPIr-57">
          <mxGeometry x="45" y="50" width="240" height="80" as="geometry" />
        </mxCell>
        <mxCell id="lnej7SUk_puMEHByZPIr-52" value="&lt;font style=&quot;font-size: 25px;&quot;&gt;dato&lt;/font&gt;" style="whiteSpace=wrap;html=1;aspect=fixed;container=0;" vertex="1" parent="lnej7SUk_puMEHByZPIr-51">
          <mxGeometry width="80" height="80" as="geometry" />
        </mxCell>
        <mxCell id="lnej7SUk_puMEHByZPIr-53" value="&lt;font style=&quot;font-size: 25px;&quot;&gt;tam&lt;/font&gt;" style="whiteSpace=wrap;html=1;aspect=fixed;container=0;" vertex="1" parent="lnej7SUk_puMEHByZPIr-51">
          <mxGeometry x="80" width="80" height="80" as="geometry" />
        </mxCell>
        <mxCell id="lnej7SUk_puMEHByZPIr-54" value="&lt;font style=&quot;font-size: 25px;&quot;&gt;sig&lt;/font&gt;" style="whiteSpace=wrap;html=1;aspect=fixed;container=0;" vertex="1" parent="lnej7SUk_puMEHByZPIr-51">
          <mxGeometry x="160" width="80" height="80" as="geometry" />
        </mxCell>
        <mxCell id="lnej7SUk_puMEHByZPIr-58" value="" style="group" vertex="1" connectable="0" parent="1">
          <mxGeometry x="1000" y="280" width="240" height="80" as="geometry" />
        </mxCell>
        <mxCell id="lnej7SUk_puMEHByZPIr-59" value="&lt;font style=&quot;font-size: 25px;&quot;&gt;dato&lt;/font&gt;" style="whiteSpace=wrap;html=1;aspect=fixed;container=0;" vertex="1" parent="lnej7SUk_puMEHByZPIr-58">
          <mxGeometry width="80" height="80" as="geometry" />
        </mxCell>
        <mxCell id="lnej7SUk_puMEHByZPIr-60" value="&lt;font style=&quot;font-size: 25px;&quot;&gt;tam&lt;/font&gt;" style="whiteSpace=wrap;html=1;aspect=fixed;container=0;" vertex="1" parent="lnej7SUk_puMEHByZPIr-58">
          <mxGeometry x="80" width="80" height="80" as="geometry" />
        </mxCell>
        <mxCell id="lnej7SUk_puMEHByZPIr-61" value="&lt;font style=&quot;font-size: 25px;&quot;&gt;sig&lt;/font&gt;" style="whiteSpace=wrap;html=1;aspect=fixed;container=0;" vertex="1" parent="lnej7SUk_puMEHByZPIr-58">
          <mxGeometry x="160" width="80" height="80" as="geometry" />
        </mxCell>
        <mxCell id="lnej7SUk_puMEHByZPIr-62" style="edgeStyle=orthogonalEdgeStyle;rounded=0;orthogonalLoop=1;jettySize=auto;html=1;entryX=0;entryY=0.5;entryDx=0;entryDy=0;" edge="1" parent="1" source="lnej7SUk_puMEHByZPIr-44" target="lnej7SUk_puMEHByZPIr-59">
          <mxGeometry relative="1" as="geometry" />
        </mxCell>
        <mxCell id="lnej7SUk_puMEHByZPIr-63" style="edgeStyle=orthogonalEdgeStyle;rounded=0;orthogonalLoop=1;jettySize=auto;html=1;exitX=0.5;exitY=1;exitDx=0;exitDy=0;entryX=0.5;entryY=0;entryDx=0;entryDy=0;" edge="1" parent="1" source="lnej7SUk_puMEHByZPIr-16" target="lnej7SUk_puMEHByZPIr-60">
          <mxGeometry relative="1" as="geometry" />
        </mxCell>
      </root>
    </mxGraphModel>
  </diagram>
</mxfile>
